<mxfile host="app.diagrams.net" modified="2023-08-02T14:39:02.535Z" agent="Mozilla/5.0 (Macintosh; Intel Mac OS X 10_15_7) AppleWebKit/537.36 (KHTML, like Gecko) Chrome/115.0.0.0 Safari/537.36" etag="CZ7zosZ0LH6EXzKSPg1t" version="21.2.4" type="device">
  <diagram name="Page-1" id="71GWLrL0MjaX6Y0m-eGN">
    <mxGraphModel dx="954" dy="526" grid="1" gridSize="10" guides="1" tooltips="1" connect="1" arrows="1" fold="1" page="1" pageScale="1" pageWidth="827" pageHeight="1169" math="0" shadow="0">
      <root>
        <mxCell id="0" />
        <mxCell id="1" parent="0" />
        <mxCell id="CLiiqIjM0ew68VauoO3d-17" value="" style="edgeStyle=orthogonalEdgeStyle;rounded=0;orthogonalLoop=1;jettySize=auto;html=1;" edge="1" parent="1" source="CLiiqIjM0ew68VauoO3d-1" target="CLiiqIjM0ew68VauoO3d-3">
          <mxGeometry relative="1" as="geometry" />
        </mxCell>
        <mxCell id="CLiiqIjM0ew68VauoO3d-1" value="Routes" style="rounded=0;whiteSpace=wrap;html=1;" vertex="1" parent="1">
          <mxGeometry x="190" y="250" width="100" height="40" as="geometry" />
        </mxCell>
        <mxCell id="CLiiqIjM0ew68VauoO3d-3" value="Controllers" style="rounded=0;whiteSpace=wrap;html=1;" vertex="1" parent="1">
          <mxGeometry x="350" y="250" width="110" height="40" as="geometry" />
        </mxCell>
        <mxCell id="CLiiqIjM0ew68VauoO3d-4" value="Main" style="rounded=0;whiteSpace=wrap;html=1;" vertex="1" parent="1">
          <mxGeometry x="40" y="250" width="100" height="40" as="geometry" />
        </mxCell>
        <mxCell id="CLiiqIjM0ew68VauoO3d-19" style="edgeStyle=orthogonalEdgeStyle;rounded=0;orthogonalLoop=1;jettySize=auto;html=1;exitX=0.5;exitY=1;exitDx=0;exitDy=0;" edge="1" parent="1" source="CLiiqIjM0ew68VauoO3d-7">
          <mxGeometry relative="1" as="geometry">
            <mxPoint x="320" y="270" as="targetPoint" />
          </mxGeometry>
        </mxCell>
        <mxCell id="CLiiqIjM0ew68VauoO3d-7" value="Middlewares" style="rounded=0;whiteSpace=wrap;html=1;" vertex="1" parent="1">
          <mxGeometry x="270" y="160" width="100" height="40" as="geometry" />
        </mxCell>
        <mxCell id="CLiiqIjM0ew68VauoO3d-27" value="" style="edgeStyle=orthogonalEdgeStyle;rounded=0;orthogonalLoop=1;jettySize=auto;html=1;" edge="1" parent="1" source="CLiiqIjM0ew68VauoO3d-9" target="CLiiqIjM0ew68VauoO3d-15">
          <mxGeometry relative="1" as="geometry" />
        </mxCell>
        <mxCell id="CLiiqIjM0ew68VauoO3d-28" value="" style="edgeStyle=orthogonalEdgeStyle;rounded=0;orthogonalLoop=1;jettySize=auto;html=1;" edge="1" parent="1" source="CLiiqIjM0ew68VauoO3d-9" target="CLiiqIjM0ew68VauoO3d-11">
          <mxGeometry relative="1" as="geometry" />
        </mxCell>
        <mxCell id="CLiiqIjM0ew68VauoO3d-9" value="Services" style="rounded=0;whiteSpace=wrap;html=1;" vertex="1" parent="1">
          <mxGeometry x="500" y="250" width="110" height="40" as="geometry" />
        </mxCell>
        <mxCell id="CLiiqIjM0ew68VauoO3d-25" value="" style="edgeStyle=orthogonalEdgeStyle;rounded=0;orthogonalLoop=1;jettySize=auto;html=1;" edge="1" parent="1" source="CLiiqIjM0ew68VauoO3d-11" target="CLiiqIjM0ew68VauoO3d-13">
          <mxGeometry relative="1" as="geometry" />
        </mxCell>
        <mxCell id="CLiiqIjM0ew68VauoO3d-11" value="Repository" style="rounded=0;whiteSpace=wrap;html=1;" vertex="1" parent="1">
          <mxGeometry x="660" y="250" width="110" height="40" as="geometry" />
        </mxCell>
        <mxCell id="CLiiqIjM0ew68VauoO3d-13" value="Database" style="rounded=0;whiteSpace=wrap;html=1;" vertex="1" parent="1">
          <mxGeometry x="660" y="340" width="110" height="40" as="geometry" />
        </mxCell>
        <mxCell id="CLiiqIjM0ew68VauoO3d-15" value="3rd Party Services" style="rounded=0;whiteSpace=wrap;html=1;" vertex="1" parent="1">
          <mxGeometry x="500" y="160" width="110" height="40" as="geometry" />
        </mxCell>
        <mxCell id="CLiiqIjM0ew68VauoO3d-16" value="" style="endArrow=classic;html=1;rounded=0;entryX=0;entryY=0.5;entryDx=0;entryDy=0;" edge="1" parent="1" target="CLiiqIjM0ew68VauoO3d-1">
          <mxGeometry width="50" height="50" relative="1" as="geometry">
            <mxPoint x="140" y="270" as="sourcePoint" />
            <mxPoint x="190" y="220" as="targetPoint" />
          </mxGeometry>
        </mxCell>
        <mxCell id="CLiiqIjM0ew68VauoO3d-20" value="" style="endArrow=classic;html=1;rounded=0;exitX=1;exitY=0.5;exitDx=0;exitDy=0;entryX=0;entryY=0.5;entryDx=0;entryDy=0;" edge="1" parent="1" source="CLiiqIjM0ew68VauoO3d-3" target="CLiiqIjM0ew68VauoO3d-9">
          <mxGeometry width="50" height="50" relative="1" as="geometry">
            <mxPoint x="550" y="340" as="sourcePoint" />
            <mxPoint x="600" y="290" as="targetPoint" />
          </mxGeometry>
        </mxCell>
      </root>
    </mxGraphModel>
  </diagram>
</mxfile>
